<svg width="100" height="100" viewBox="0 0 100 100" fill="none" xmlns="http://www.w3.org/2000/svg">
<path d="M68.75 9.375H31.25C25.4503 9.3812 19.8899 11.6879 15.7889 15.7889C11.6879 19.8899 9.3812 25.4503 9.375 31.25V68.75C9.3812 74.5497 11.6879 80.1101 15.7889 84.2111C19.8899 88.3121 25.4503 90.6188 31.25 90.625H68.75C74.5497 90.6188 80.1101 88.3121 84.2111 84.2111C88.3121 80.1101 90.6188 74.5497 90.625 68.75V31.25C90.6188 25.4503 88.3121 19.8899 84.2111 15.7889C80.1101 11.6879 74.5497 9.3812 68.75 9.375ZM50 68.75C46.2916 68.75 42.6665 67.6503 39.5831 65.5901C36.4996 63.5298 34.0964 60.6014 32.6773 57.1753C31.2581 53.7492 30.8868 49.9792 31.6103 46.3421C32.3338 42.7049 34.1195 39.364 36.7417 36.7417C39.364 34.1195 42.7049 32.3338 46.3421 31.6103C49.9792 30.8868 53.7492 31.2581 57.1753 32.6773C60.6014 34.0964 63.5298 36.4996 65.5901 39.5831C67.6503 42.6665 68.75 46.2916 68.75 50C68.7448 54.9712 66.7677 59.7374 63.2525 63.2525C59.7374 66.7677 54.9712 68.7448 50 68.75ZM73.4375 31.25C72.5104 31.25 71.6041 30.9751 70.8333 30.46C70.0624 29.9449 69.4616 29.2129 69.1068 28.3563C68.752 27.4998 68.6592 26.5573 68.8401 25.648C69.0209 24.7387 69.4674 23.9035 70.1229 23.2479C70.7785 22.5924 71.6137 22.1459 72.523 21.9651C73.4323 21.7842 74.3748 21.877 75.2313 22.2318C76.0879 22.5866 76.8199 23.1874 77.335 23.9583C77.8501 24.7291 78.125 25.6354 78.125 26.5625C78.125 27.8057 77.6311 28.998 76.7521 29.8771C75.873 30.7561 74.6807 31.25 73.4375 31.25ZM62.5 50C62.5 52.4723 61.7669 54.889 60.3934 56.9446C59.0199 59.0002 57.0676 60.6024 54.7835 61.5485C52.4995 62.4946 49.9861 62.7421 47.5614 62.2598C45.1366 61.7775 42.9093 60.587 41.1612 58.8388C39.413 57.0907 38.2225 54.8634 37.7402 52.4386C37.2579 50.0139 37.5054 47.5005 38.4515 45.2165C39.3976 42.9324 40.9998 40.9801 43.0554 39.6066C45.111 38.2331 47.5277 37.5 50 37.5C53.3152 37.5 56.4946 38.817 58.8388 41.1612C61.183 43.5054 62.5 46.6848 62.5 50Z" fill="white"/>
</svg>
