<svg width="100" height="100" viewBox="0 0 100 100" fill="none" xmlns="http://www.w3.org/2000/svg">
<path d="M49.9997 8.33325C26.9997 8.33325 8.33301 26.9999 8.33301 49.9999C8.33301 72.9999 26.9997 91.6666 49.9997 91.6666C72.9997 91.6666 91.6663 72.9999 91.6663 49.9999C91.6663 26.9999 72.9997 8.33325 49.9997 8.33325ZM69.333 36.6666C68.708 43.2499 65.9997 59.2499 64.6247 66.6249C64.0413 69.7499 62.8747 70.7916 61.7913 70.9166C59.3747 71.1249 57.5413 69.3333 55.208 67.7916C51.5413 65.3749 49.458 63.8749 45.9163 61.5416C41.7913 58.8333 44.458 57.3333 46.833 54.9166C47.458 54.2916 58.1247 44.5832 58.333 43.7082C58.3619 43.5757 58.3581 43.4381 58.3218 43.3074C58.2855 43.1767 58.2178 43.0569 58.1247 42.9583C57.8747 42.7499 57.5413 42.8333 57.2497 42.8749C56.8747 42.9583 51.0413 46.8333 39.6663 54.4999C37.9997 55.6249 36.4997 56.2082 35.1663 56.1666C33.6663 56.1249 30.833 55.3332 28.708 54.6249C26.083 53.7916 24.0413 53.3332 24.208 51.8749C24.2913 51.1249 25.333 50.3749 27.2913 49.5832C39.458 44.2916 47.5413 40.7916 51.583 39.1249C63.1663 34.2916 65.5413 33.4582 67.1247 33.4582C67.458 33.4582 68.2497 33.5416 68.7497 33.9582C69.1663 34.2916 69.2913 34.7499 69.333 35.0833C69.2913 35.3333 69.3747 36.0833 69.333 36.6666Z" fill="white"/>
</svg>
